<svg width="18" height="18" viewBox="0 0 18 19" fill="none" xmlns="http://www.w3.org/2000/svg">
<path fill-rule="evenodd" clip-rule="evenodd" d="M5.66663 1.66668C5.66663 1.20644 5.29353 0.833344 4.83329 0.833344C4.37305 0.833344 3.99996 1.20644 3.99996 1.66668V2.50001H3.16663C2.50358 2.50001 1.8677 2.7634 1.39886 3.23224C0.930018 3.70108 0.666626 4.33697 0.666626 5.00001V15.8333C0.666626 16.4964 0.930018 17.1323 1.39886 17.6011C1.8677 18.07 2.50358 18.3333 3.16663 18.3333H14.8333C15.4963 18.3333 16.1322 18.07 16.6011 17.6011C17.0699 17.1323 17.3333 16.4964 17.3333 15.8333V5.00001C17.3333 4.33697 17.0699 3.70108 16.6011 3.23224C16.1322 2.7634 15.4963 2.50001 14.8333 2.50001H14.4166C13.9564 2.50001 13.5833 2.87311 13.5833 3.33334C13.5833 3.79358 13.9564 4.16668 14.4166 4.16668H14.8333C15.0543 4.16668 15.2663 4.25447 15.4225 4.41075C15.5788 4.56703 15.6666 4.779 15.6666 5.00001V7.50001H2.33329V5.00001C2.33329 4.779 2.42109 4.56703 2.57737 4.41075C2.73365 4.25447 2.94561 4.16668 3.16663 4.16668H3.99996V5.00001C3.99996 5.46025 4.37305 5.83334 4.83329 5.83334C5.29353 5.83334 5.66663 5.46025 5.66663 5.00001V1.66668ZM2.57737 16.4226C2.42109 16.2663 2.33329 16.0544 2.33329 15.8333V9.16668H15.6666V15.8333C15.6666 16.0544 15.5788 16.2663 15.4225 16.4226C15.2663 16.5789 15.0543 16.6667 14.8333 16.6667H3.16663C2.94561 16.6667 2.73365 16.5789 2.57737 16.4226Z" fill="#C0C0C0"/>
<path d="M12.3333 1.66668C12.3333 1.20644 11.9602 0.833344 11.5 0.833344C11.0397 0.833344 10.6666 1.20644 10.6666 1.66668V2.50001H7.74996C7.28972 2.50001 6.91663 2.87311 6.91663 3.33334C6.91663 3.79358 7.28972 4.16668 7.74996 4.16668H10.6666V5.00001C10.6666 5.46025 11.0397 5.83334 11.5 5.83334C11.9602 5.83334 12.3333 5.46025 12.3333 5.00001V1.66668Z" fill="#8A8C91"/>
</svg>
