<svg width="18" height="18" viewBox="0 0 18 17" fill="none" xmlns="http://www.w3.org/2000/svg">
<path fill-rule="evenodd" clip-rule="evenodd" d="M8.99996 0.231445C8.23857 0.231445 7.49174 0.440069 6.84058 0.834657L2.67392 3.35966C2.0612 3.73095 1.55456 4.25397 1.20295 4.87819C0.851334 5.50241 0.666614 6.20675 0.666626 6.92318V12.1665C0.666626 13.2716 1.10561 14.3314 1.88701 15.1128C2.66842 15.8942 3.72822 16.3332 4.83329 16.3332H13.1666C14.2717 16.3332 15.3315 15.8942 16.1129 15.1128C16.8943 14.3314 17.3333 13.2716 17.3333 12.1665V6.92235C17.3331 6.20608 17.1483 5.50176 16.7967 4.87774C16.4451 4.25372 15.9386 3.73087 15.326 3.35966L11.1593 0.834664C10.5082 0.440076 9.76134 0.231445 8.99996 0.231445ZM7.70434 2.26003C8.09504 2.02328 8.54313 1.89811 8.99996 1.89811C9.45678 1.89811 9.90488 2.02328 10.2956 2.26003L14.4622 4.78503C14.8298 5.00776 15.1337 5.32147 15.3447 5.69589C15.5556 6.07025 15.6665 6.49266 15.6666 6.92235V12.1665C15.6666 12.8296 15.4032 13.4654 14.9344 13.9343C14.4655 14.4031 13.8297 14.6665 13.1666 14.6665H12.3333V12.1665C12.3333 11.2825 11.9821 10.4346 11.357 9.80949C10.7319 9.18437 9.88401 8.83318 8.99996 8.83318C8.1159 8.83318 7.26806 9.18437 6.64294 9.80949C6.01781 10.4346 5.66663 11.2825 5.66663 12.1665V14.6665H4.83329C4.17025 14.6665 3.53437 14.4031 3.06553 13.9343C2.59668 13.4654 2.33329 12.8296 2.33329 12.1665V6.92318C2.33328 6.49332 2.44412 6.07069 2.65509 5.69616C2.86605 5.32163 3.17003 5.00782 3.53767 4.78504L7.70434 2.26003ZM10.1785 10.988C10.491 11.3006 10.6666 11.7245 10.6666 12.1665V14.6665H7.33329V12.1665C7.33329 11.7245 7.50889 11.3006 7.82145 10.988C8.13401 10.6754 8.55793 10.4999 8.99996 10.4999C9.44199 10.4999 9.86591 10.6754 10.1785 10.988Z" fill="#C0C0C0"/>
</svg>
