<svg width="20" height="20" viewBox="0 0 20 20" fill="none" xmlns="http://www.w3.org/2000/svg">
<path fill-rule="evenodd" clip-rule="evenodd" d="M9.99843 0.83252C8.43357 0.83252 6.94449 1.49597 5.85467 2.65839C4.76732 3.81822 4.1651 5.3808 4.1651 6.99919C4.1651 9.99624 3.56384 11.8633 3.00648 12.9532C2.727 13.4997 2.45489 13.8582 2.26601 14.0708C2.17136 14.1774 2.09701 14.248 2.05225 14.2878C2.02986 14.3077 2.01483 14.3199 2.00833 14.3251L2.00587 14.327C1.7173 14.5384 1.59551 14.911 1.70458 15.2526C1.81486 15.5981 2.13584 15.8325 2.49843 15.8325H17.4984C17.861 15.8325 18.182 15.5981 18.2923 15.2526C18.4014 14.911 18.2796 14.5384 17.991 14.327L17.9885 14.3251C17.982 14.3199 17.967 14.3077 17.9446 14.2878C17.8999 14.248 17.8255 14.1774 17.7309 14.0708C17.542 13.8582 17.2699 13.4997 16.9904 12.9532C16.433 11.8633 15.8318 9.99624 15.8318 6.99919C15.8318 5.3808 15.2296 3.81824 14.1422 2.6584C13.0526 1.49723 11.5627 0.83252 9.99843 0.83252ZM2.00587 14.327L2.00833 14.3251L2.00587 14.327ZM2.00833 14.3251L2.00511 14.3276L2.00833 14.3251ZM15.5065 13.712C15.5897 13.8748 15.6733 14.0258 15.7563 14.1659H4.24057C4.32352 14.0258 4.40716 13.8748 4.49038 13.712C5.18303 12.3576 5.83177 10.2246 5.83177 6.99919C5.83177 5.78925 6.28289 4.63848 7.07053 3.79832C7.85737 2.95907 8.91163 2.49919 9.99843 2.49919C11.0841 2.49919 12.1392 2.95965 12.9263 3.7983L14.2165 8.52504C14.383 10.9153 14.9295 12.5837 15.5065 13.712ZM14.2165 8.52504C14.1832 8.04605 14.1651 7.5376 14.1651 6.99919C14.1651 5.78937 13.7138 4.63844 12.9263 3.7983L14.2165 8.52504Z" fill="#8A8C91"/>
<path d="M9.27796 17.0817C9.04737 16.6834 8.53755 16.5474 8.13924 16.778C7.74094 17.0086 7.60498 17.5184 7.83557 17.9167C8.05512 18.2959 8.37051 18.6108 8.75013 18.8296C9.12975 19.0485 9.56024 19.1637 9.99843 19.1637C10.4366 19.1637 10.8671 19.0485 11.2467 18.8296C11.6264 18.6108 11.9417 18.2959 12.1613 17.9167C12.3919 17.5184 12.2559 17.0086 11.8576 16.778C11.4593 16.5474 10.9495 16.6834 10.7189 17.0817C10.6458 17.208 10.5407 17.3129 10.4143 17.3858C10.2878 17.4587 10.1444 17.4971 9.99843 17.4971C9.85246 17.4971 9.70906 17.4587 9.58261 17.3858C9.45615 17.3129 9.35109 17.208 9.27796 17.0817Z" fill="#8A8C91"/>
</svg>
