<svg width="20" height="20" viewBox="0 0 14 16" fill="none" xmlns="http://www.w3.org/2000/svg">
<path fill-rule="evenodd" clip-rule="evenodd" d="M7.00004 0.5C5.89497 0.5 4.83516 0.938987 4.05376 1.72039C3.27236 2.50179 2.83337 3.5616 2.83337 4.66667C2.83337 5.77174 3.27236 6.83154 4.05376 7.61294C4.10873 7.66791 4.16507 7.72119 4.22272 7.77273C3.50895 8.09981 2.85185 8.55343 2.286 9.11929C1.03575 10.3695 0.333374 12.0652 0.333374 13.8333V14.6667C0.333374 15.1269 0.70647 15.5 1.16671 15.5C1.62694 15.5 2.00004 15.1269 2.00004 14.6667V13.8333C2.00004 12.5073 2.52682 11.2355 3.46451 10.2978C4.40219 9.36012 5.67396 8.83333 7.00004 8.83333C8.32612 8.83333 9.59789 9.36012 10.5356 10.2978C11.4733 11.2355 12 12.5073 12 13.8333V14.6667C12 15.1269 12.3731 15.5 12.8334 15.5C13.2936 15.5 13.6667 15.1269 13.6667 14.6667V13.8333C13.6667 12.0652 12.9643 10.3695 11.7141 9.11929C11.1482 8.55343 10.4911 8.09981 9.77736 7.77273C9.83501 7.72119 9.89135 7.66791 9.94632 7.61294C10.7277 6.83154 11.1667 5.77174 11.1667 4.66667C11.1667 3.5616 10.7277 2.50179 9.94632 1.72039C9.16492 0.938987 8.10511 0.5 7.00004 0.5ZM5.23227 2.8989C5.70111 2.43006 6.337 2.16667 7.00004 2.16667C7.66308 2.16667 8.29897 2.43006 8.76781 2.8989C9.23665 3.36774 9.50004 4.00363 9.50004 4.66667C9.50004 5.32971 9.23665 5.96559 8.76781 6.43443C8.29897 6.90327 7.66308 7.16667 7.00004 7.16667C6.337 7.16667 5.70111 6.90327 5.23227 6.43443C4.76343 5.96559 4.50004 5.32971 4.50004 4.66667C4.50004 4.00363 4.76343 3.36774 5.23227 2.8989Z" fill="#8A8C91"/>
</svg>
