<svg width="20" height="20" viewBox="0 0 16 20" fill="none" xmlns="http://www.w3.org/2000/svg">
<path d="M4.66667 7.50001C4.20643 7.50001 3.83333 7.87311 3.83333 8.33334C3.83333 8.79358 4.20643 9.16668 4.66667 9.16668H11.3333C11.7936 9.16668 12.1667 8.79358 12.1667 8.33334C12.1667 7.87311 11.7936 7.50001 11.3333 7.50001H4.66667Z" fill="#C0C0C0"/>
<path d="M4.66667 10.8333C4.20643 10.8333 3.83333 11.2064 3.83333 11.6667C3.83333 12.1269 4.20643 12.5 4.66667 12.5H8C8.46024 12.5 8.83333 12.1269 8.83333 11.6667C8.83333 11.2064 8.46024 10.8333 8 10.8333H4.66667Z" fill="#C0C0C0"/>
<path d="M4.66667 14.1667C4.20643 14.1667 3.83333 14.5398 3.83333 15C3.83333 15.4602 4.20643 15.8333 4.66667 15.8333H11.3333C11.7936 15.8333 12.1667 15.4602 12.1667 15C12.1667 14.5398 11.7936 14.1667 11.3333 14.1667H4.66667Z" fill="#C0C0C0"/>
<path fill-rule="evenodd" clip-rule="evenodd" d="M15.399 4.28133C15.3319 4.11902 15.2335 3.97157 15.1093 3.84742L12.4863 1.22446C12.2365 0.974336 11.8976 0.833655 11.5441 0.833344H1.83333C1.47971 0.833344 1.14057 0.973819 0.890524 1.22387C0.640476 1.47392 0.5 1.81305 0.5 2.16668V17.8333C0.5 18.0084 0.534488 18.1818 0.601494 18.3436C0.668499 18.5054 0.766711 18.6523 0.890524 18.7762C1.01433 18.9 1.16132 18.9982 1.32309 19.0652C1.48486 19.1322 1.65824 19.1667 1.83333 19.1667H14.1667C14.3418 19.1667 14.5151 19.1322 14.6769 19.0652C14.8387 18.9982 14.9857 18.9 15.1095 18.7762C15.2333 18.6523 15.3315 18.5054 15.3985 18.3436C15.4655 18.1818 15.5 18.0084 15.5 17.8333V4.79193L14.6667 4.79168L15.5 4.79372L15.5 4.79193C15.5002 4.61675 15.4659 4.44325 15.399 4.28133ZM10.5 4.58334C10.5 5.2737 11.0596 5.83334 11.75 5.83334H13.8333V17.5H2.16667V2.50001H10.5V4.58334ZM13.0715 4.16668L12.1667 3.26185V4.16668H13.0715Z" fill="#C0C0C0"/>
</svg>
