<svg width="18" height="18" viewBox="0 0 18 18" fill="none" xmlns="http://www.w3.org/2000/svg">
<path fill-rule="evenodd" clip-rule="evenodd" d="M12 0.666656C11.6463 0.666656 11.3072 0.807131 11.0571 1.05718C10.8071 1.30723 10.6666 1.64637 10.6666 1.99999V5.66666H6.99996C6.64634 5.66666 6.3072 5.80713 6.05715 6.05718C5.8071 6.30723 5.66663 6.64637 5.66663 6.99999V11.5H1.99996C1.64634 11.5 1.3072 11.6405 1.05715 11.8905C0.807101 12.1406 0.666626 12.4797 0.666626 12.8333V16C0.666626 16.3536 0.807101 16.6927 1.05715 16.9428C1.3072 17.1928 1.64634 17.3333 1.99996 17.3333H16C16.3536 17.3333 16.6927 17.1928 16.9428 16.9428C17.1928 16.6927 17.3333 16.3536 17.3333 16V1.99999C17.3333 1.64637 17.1928 1.30723 16.9428 1.05718C16.6927 0.807131 16.3536 0.666656 16 0.666656H12ZM7.33329 7.33332H10.6666V15.6667H7.33329V7.33332ZM15.6666 15.6667H12.3333V2.33332H15.6666V15.6667ZM5.66663 13.1667V15.6667H2.33329V13.1667H5.66663Z" fill="#C0C0C0"/>
</svg>
